<mxfile host="www.draw.io" modified="2020-03-09T03:17:14.546Z" agent="Mozilla/5.0 (Windows NT 10.0; Win64; x64) AppleWebKit/537.36 (KHTML, like Gecko) Chrome/80.0.3987.132 Safari/537.36" etag="CIx6KAHw9Mp2HEXcV7sw" version="12.8.1" type="github">
  <diagram id="ZktGi2svA78UdaO3cs_2" name="第 1 页">
    <mxGraphModel dx="942" dy="541" grid="1" gridSize="10" guides="1" tooltips="1" connect="1" arrows="1" fold="1" page="1" pageScale="1" pageWidth="827" pageHeight="1169" math="0" shadow="0">
      <root>
        <mxCell id="0" />
        <mxCell id="1" parent="0" />
        <mxCell id="ZOVoq46K42t6tsjMokU2-13" value="APP/WEB" style="group;fillColor=#60a917;strokeColor=#2D7600;fontColor=#ffffff;fontSize=30;" vertex="1" connectable="0" parent="1">
          <mxGeometry x="910" y="290" width="650" height="540" as="geometry" />
        </mxCell>
        <mxCell id="ZOVoq46K42t6tsjMokU2-1" value="" style="group;" vertex="1" connectable="0" parent="1">
          <mxGeometry x="1640" y="320" width="310" height="310" as="geometry" />
        </mxCell>
        <mxCell id="ZOVoq46K42t6tsjMokU2-2" value="RCS" style="whiteSpace=wrap;html=1;aspect=fixed;rounded=0;fillColor=#F8CECC;fontSize=30;align=center;fontStyle=1;verticalAlign=top;" vertex="1" parent="ZOVoq46K42t6tsjMokU2-1">
          <mxGeometry width="310" height="310" as="geometry" />
        </mxCell>
        <mxCell id="ZOVoq46K42t6tsjMokU2-3" value="UFO" style="rounded=0;whiteSpace=wrap;html=1;fontSize=30;align=center;" vertex="1" parent="ZOVoq46K42t6tsjMokU2-1">
          <mxGeometry y="133.22" width="310" height="71.03" as="geometry" />
        </mxCell>
        <mxCell id="ZOVoq46K42t6tsjMokU2-4" value="FS" style="rounded=0;whiteSpace=wrap;html=1;fillColor=#dae8fc;fontSize=30;align=center;strokeColor=#6c8ebf;" vertex="1" parent="ZOVoq46K42t6tsjMokU2-1">
          <mxGeometry y="204.25" width="310" height="71.03" as="geometry" />
        </mxCell>
        <mxCell id="ZOVoq46K42t6tsjMokU2-5" value="OF" style="rounded=0;whiteSpace=wrap;html=1;fillColor=#fff2cc;fontSize=30;align=center;strokeColor=#d6b656;" vertex="1" parent="ZOVoq46K42t6tsjMokU2-1">
          <mxGeometry y="61.19" width="310" height="71.03" as="geometry" />
        </mxCell>
        <mxCell id="ZOVoq46K42t6tsjMokU2-9" value="" style="verticalLabelPosition=bottom;verticalAlign=top;html=1;shadow=0;dashed=0;strokeWidth=1;shape=mxgraph.android.phone2;strokeColor=#36393d;fillColor=#330000;" vertex="1" parent="1">
          <mxGeometry x="667.5" y="310" width="30" height="60" as="geometry" />
        </mxCell>
        <mxCell id="ZOVoq46K42t6tsjMokU2-10" value="Admin/User" style="aspect=fixed;perimeter=ellipsePerimeter;html=1;align=center;shadow=0;dashed=0;spacingTop=3;image;image=img/lib/active_directory/user_accounts.svg;fillColor=#330000;fontSize=30;" vertex="1" parent="1">
          <mxGeometry x="610" y="385.75" width="50" height="48.5" as="geometry" />
        </mxCell>
        <mxCell id="ZOVoq46K42t6tsjMokU2-11" value="" style="aspect=fixed;pointerEvents=1;shadow=0;dashed=0;html=1;strokeColor=none;labelPosition=center;verticalLabelPosition=bottom;verticalAlign=top;align=center;fillColor=#00188D;shape=mxgraph.mscae.enterprise.workstation_client;rounded=0;fontSize=30;" vertex="1" parent="1">
          <mxGeometry x="660" y="500" width="50" height="50" as="geometry" />
        </mxCell>
        <mxCell id="ZOVoq46K42t6tsjMokU2-15" value="音视频API" style="rounded=0;whiteSpace=wrap;html=1;fontSize=30;align=center;" vertex="1" parent="1">
          <mxGeometry x="1040" y="440" width="180" height="65.21" as="geometry" />
        </mxCell>
        <mxCell id="ZOVoq46K42t6tsjMokU2-16" value="IM API" style="rounded=0;whiteSpace=wrap;html=1;fillColor=#dae8fc;fontSize=30;align=center;strokeColor=#6c8ebf;" vertex="1" parent="1">
          <mxGeometry x="1040" y="505.21000000000004" width="180" height="54.79" as="geometry" />
        </mxCell>
        <mxCell id="ZOVoq46K42t6tsjMokU2-17" value="通讯控制" style="rounded=0;whiteSpace=wrap;html=1;fillColor=#fff2cc;fontSize=30;align=center;strokeColor=#d6b656;" vertex="1" parent="1">
          <mxGeometry x="1040" y="625.2099999999999" width="180" height="65.12" as="geometry" />
        </mxCell>
        <mxCell id="ZOVoq46K42t6tsjMokU2-26" value="运行管理" style="rounded=0;whiteSpace=wrap;html=1;fillColor=#dae8fc;fontSize=30;align=center;strokeColor=#6c8ebf;" vertex="1" parent="1">
          <mxGeometry x="1040" y="385.21000000000004" width="180" height="54.79" as="geometry" />
        </mxCell>
        <mxCell id="ZOVoq46K42t6tsjMokU2-27" value="通讯录" style="rounded=0;whiteSpace=wrap;html=1;fontSize=30;align=center;" vertex="1" parent="1">
          <mxGeometry x="1040" y="560" width="180" height="65.21" as="geometry" />
        </mxCell>
        <mxCell id="ZOVoq46K42t6tsjMokU2-28" value="配置管理" style="rounded=0;whiteSpace=wrap;html=1;fillColor=#fff2cc;fontSize=30;align=center;strokeColor=#d6b656;" vertex="1" parent="1">
          <mxGeometry x="1040" y="690.3299999999999" width="180" height="65.12" as="geometry" />
        </mxCell>
        <mxCell id="ZOVoq46K42t6tsjMokU2-30" value="Restfull API 接口层" style="rounded=0;whiteSpace=wrap;html=1;fillColor=#dae8fc;fontSize=30;align=center;strokeColor=#6c8ebf;" vertex="1" parent="1">
          <mxGeometry x="1260" y="457.81" width="260" height="47.4" as="geometry" />
        </mxCell>
        <mxCell id="ZOVoq46K42t6tsjMokU2-31" value="音视频接口层" style="rounded=0;whiteSpace=wrap;html=1;fillColor=#dae8fc;fontSize=30;align=center;strokeColor=#6c8ebf;" vertex="1" parent="1">
          <mxGeometry x="1260" y="535" width="260" height="50" as="geometry" />
        </mxCell>
        <mxCell id="ZOVoq46K42t6tsjMokU2-32" value="IM 接口层" style="rounded=0;whiteSpace=wrap;html=1;fillColor=#dae8fc;fontSize=30;align=center;strokeColor=#6c8ebf;" vertex="1" parent="1">
          <mxGeometry x="1260" y="385.2100000000001" width="260" height="47.4" as="geometry" />
        </mxCell>
      </root>
    </mxGraphModel>
  </diagram>
</mxfile>
